<?xml version="1.0" encoding="utf-8"?><svg version="1.1" id="Layer_1" xmlns="http://www.w3.org/2000/svg" xmlns:xlink="http://www.w3.org/1999/xlink" x="0px" y="0px" viewBox="0 0 101.29 122.88" style="enable-background:new 0 0 101.29 122.88" xml:space="preserve"><g><path d="M67.02,12.99c-0.3,0-0.59-0.05-0.86-0.15c-1.42,0-2.58-1.16-2.58-2.58v-5.1h-25.1v5.1c0,1.34-1.02,2.44-2.33,2.57 c-0.28,0.1-0.58,0.16-0.89,0.16h-9.44v10.53h49.56V12.99H67.02L67.02,12.99z M70.57,122.2c-0.46,0.42-1.07,0.68-1.74,0.68 c-0.14,0-0.27-0.01-0.4-0.03l-62.69,0v0.01c-1.56,0-3-0.65-4.05-1.69h0l0-0.01l-0.01,0l-0.01-0.01C0.64,120.11,0,118.68,0,117.12 V20.24c0-1.58,0.65-3.02,1.69-4.06c1.04-1.04,2.48-1.69,4.06-1.69h14.92v-2.82c0-1.05,0.43-2.01,1.13-2.71l0,0l0.01-0.01l0.01-0.01 c0.7-0.69,1.66-1.12,2.71-1.12h8.81V4.27c0-1.17,0.48-2.23,1.25-3.01l0.01-0.01h0C35.36,0.48,36.42,0,37.59,0h26.89 c1.17,0,2.23,0.48,3.01,1.26l0.01-0.01c0.77,0.77,1.25,1.84,1.25,3.02v3.56h7.94c1.05,0,2.01,0.43,2.71,1.13l0.01,0.01l0.01,0.01 l0.01,0.01c0.69,0.7,1.12,1.66,1.12,2.71v2.82h14.92c1.57,0,3.01,0.65,4.05,1.69l0.01-0.01c1.04,1.04,1.69,2.48,1.69,4.06v69.18 c0.05,0.21,0.08,0.42,0.08,0.64c0,0.78-0.34,1.47-0.89,1.95l-29.62,30C70.72,122.08,70.64,122.14,70.57,122.2L70.57,122.2z M66.25,117.71V95.27c0-2.14,0.88-4.09,2.29-5.5c1.41-1.41,3.36-2.29,5.5-2.29h22.01V20.24c0-0.16-0.07-0.3-0.17-0.41l0.01-0.01 l-0.01,0c-0.1-0.1-0.25-0.16-0.41-0.16H80.55v5.17c0,1.05-0.43,2.01-1.13,2.71l-0.01,0l-0.01,0.01l-0.01,0.01 c-0.7,0.69-1.66,1.12-2.71,1.12H24.52c-1.06,0-2.03-0.43-2.72-1.13c-0.08-0.08-0.16-0.17-0.22-0.26c-0.56-0.67-0.91-1.54-0.91-2.47 v-5.17H5.74c-0.16,0-0.3,0.07-0.41,0.17c-0.11,0.11-0.17,0.25-0.17,0.41v96.87c0,0.16,0.06,0.31,0.17,0.41h0l0.01,0.01 c0.1,0.1,0.25,0.17,0.41,0.17v0.01L66.25,117.71L66.25,117.71z M71.41,95.27v18.78l21.14-21.41H74.03c-0.72,0-1.38,0.3-1.85,0.77 C71.7,93.89,71.41,94.55,71.41,95.27L71.41,95.27z M21.27,84.65c-1.43,0-2.58-1.16-2.58-2.58c0-1.43,1.16-2.58,2.58-2.58h45.4 c1.42,0,2.58,1.16,2.58,2.58c0,1.42-1.16,2.58-2.58,2.58H21.27L21.27,84.65z M21.27,50.08c-1.43,0-2.58-1.16-2.58-2.58 c0-1.42,1.16-2.58,2.58-2.58h58.67c1.43,0,2.58,1.16,2.58,2.58c0,1.42-1.16,2.58-2.58,2.58H21.27L21.27,50.08z M21.27,67.36 c-1.43,0-2.58-1.16-2.58-2.58c0-1.42,1.16-2.58,2.58-2.58h58.67c1.43,0,2.58,1.16,2.58,2.58c0,1.43-1.16,2.58-2.58,2.58H21.27 L21.27,67.36z"/></g></svg>